<svg width="67" height="66" viewBox="0 0 67 66" fill="none" xmlns="http://www.w3.org/2000/svg">
<path d="M28.0305 5.38776C28.0305 2.41218 30.4792 0 33.4999 0C36.5205 0 38.9693 2.41218 38.9693 5.38775V60.6122C38.9693 63.5878 36.5205 66 33.4999 66C30.4792 66 28.0305 63.5878 28.0305 60.6122V5.38776Z" fill="#F8F0E3"/>
<path d="M5.47889 37.7622C2.45823 37.7673 0.00525006 35.3593 8.41394e-06 32.3838C-0.00523324 29.4082 2.43925 26.9918 5.4599 26.9867L61.5211 26.8908C64.5418 26.8857 66.9948 29.2937 67 32.2692C67.0052 35.2448 64.5608 37.6612 61.5401 37.6663L5.47889 37.7622Z" fill="#F8F0E3"/>
</svg>
