<svg width="43" height="907" viewBox="0 0 43 907" fill="none" xmlns="http://www.w3.org/2000/svg">
<path d="M8.63998 458.4C16.96 458.4 22.44 448.72 22.44 439.72C22.44 434.08 19.8 429.52 14.28 429.52C5.95998 429.52 0.47998 439.2 0.47998 448.2C0.47998 453.84 3.11998 458.4 8.63998 458.4ZM8.67998 457.24C5.35998 457.24 4.51998 453.28 4.51998 448.6C4.51998 440.72 8.51998 430.68 14.2 430.68C17.52 430.68 18.4 434.64 18.4 439.32C18.4 447.2 14.36 457.24 8.67998 457.24Z" fill="#373737"/>
<path d="M30.1481 443.12L30.3481 444.16C31.4281 443.88 32.0681 443.84 32.9481 443.84C36.1481 443.84 38.1081 446.2 38.1081 449.92C38.1081 454.28 34.9881 457.24 31.1481 457.24C27.7481 457.24 26.3881 455.04 26.3881 452.16C26.3881 451 26.6281 450.28 27.1081 449.24H25.1881C23.9881 449.8 22.8281 450.92 22.8281 452.72C22.8281 455.36 24.8281 458.4 31.0681 458.4C35.7081 458.4 41.9081 455.2 41.9081 448.6C41.9081 445.24 39.2681 442.44 35.5481 442.08C38.5481 441.12 42.8681 439.2 42.8681 434.8C42.8681 431.84 40.5481 429.52 36.6281 429.52C32.3081 429.52 29.3481 432 27.1881 435.2L27.8281 435.92C29.9481 433.44 32.2281 432.04 34.9881 432.04C37.5081 432.04 39.0681 433.68 39.0681 435.88C39.0681 439.68 34.8681 441.96 30.1481 443.12Z" fill="#373737"/>
<path d="M17 0H25V393H17V0Z" fill="#373737"/>
<path d="M21 514H29V907H21V514Z" fill="#373737"/>
</svg>
