<svg width="37" height="897" viewBox="0 0 37 897" fill="none" xmlns="http://www.w3.org/2000/svg">
<path d="M8.63998 461.4C16.96 461.4 22.44 451.72 22.44 442.72C22.44 437.08 19.8 432.52 14.28 432.52C5.95998 432.52 0.47998 442.2 0.47998 451.2C0.47998 456.84 3.11998 461.4 8.63998 461.4ZM8.67998 460.24C5.35998 460.24 4.51998 456.28 4.51998 451.6C4.51998 443.72 8.51998 433.68 14.2 433.68C17.52 433.68 18.4 437.64 18.4 442.32C18.4 450.2 14.36 460.24 8.67998 460.24Z" fill="#373737"/>
<path d="M35.9928 432.56C33.4328 435.24 31.5128 435.88 28.0328 436.48L26.6328 436.72L26.3928 437.68H31.9128L27.8328 457.04C27.2328 459.48 26.2728 459.64 22.1528 459.92L21.9128 461H35.9528L36.1928 459.92C32.4728 459.76 31.1528 459.52 31.7528 456.2L36.7528 432.56H35.9928Z" fill="#373737"/>
<path d="M18 0H26V394H18V0Z" fill="#373737"/>
<path d="M18 503H26V897H18V503Z" fill="#373737"/>
</svg>
