<svg width="43" height="889" viewBox="0 0 43 889" fill="none" xmlns="http://www.w3.org/2000/svg">
<path d="M8.63998 455.4C16.96 455.4 22.44 445.72 22.44 436.72C22.44 431.08 19.8 426.52 14.28 426.52C5.95998 426.52 0.47998 436.2 0.47998 445.2C0.47998 450.84 3.11998 455.4 8.63998 455.4ZM8.67998 454.24C5.35998 454.24 4.51998 450.28 4.51998 445.6C4.51998 437.72 8.51998 427.68 14.2 427.68C17.52 427.68 18.4 431.64 18.4 436.32C18.4 444.2 14.36 454.24 8.67998 454.24Z" fill="#F8F0E3"/>
<path d="M25.5325 451.72C34.4525 444.24 42.4125 439.92 42.4125 433.36C42.4125 429.2 39.4925 426.52 35.0525 426.52C30.3725 426.52 27.5325 429.48 25.4525 432.88L26.0125 433.56C27.9325 431.44 30.0525 429.56 33.4925 429.56C36.6525 429.56 38.5325 431.48 38.5325 434.2C38.5325 439 35.3325 442.36 20.5325 454.32L20.3725 455H38.2525L40.6525 447.48H39.6925C37.3725 451.32 36.0525 451.72 32.5325 451.72H25.5325Z" fill="#F8F0E3"/>
<path d="M17 0H25V393H17V0Z" fill="#F8F0E3"/>
<path d="M18 496H26V889H18V496Z" fill="#F8F0E3"/>
</svg>
